#tb 0: 1/44100
0,          0,          0,        0,    84480, 0x0699eb38
0,       1764,       1764,        0,    84480, 0xce902c32
0,       3528,       3528,        0,    84480, 0xb6d125f7
0,       5292,       5292,        0,    84480, 0x2555e93b
0,       7056,       7056,        0,    84480, 0xaea5c08c
0,       8820,       8820,        0,    84480, 0x848eb3da
0,      10584,      10584,        0,    84480, 0x6cfabe90
0,      12348,      12348,        0,    84480, 0xed16cc5e
0,      14112,      14112,        0,    84480, 0xda8df8f8
0,      15876,      15876,        0,    84480, 0x83fa054b
